<?xml version="1.0" standalone="no"?>
<!DOCTYPE svg PUBLIC "-//W3C//DTD SVG 20010904//EN"
 "http://www.w3.org/TR/2001/REC-SVG-20010904/DTD/svg10.dtd">
<svg version="1.0" xmlns="http://www.w3.org/2000/svg"
 width="744.000000pt" height="1052.000000pt" viewBox="0 0 744.000000 1052.000000"
 preserveAspectRatio="xMidYMid meet">

<g transform="translate(0.000000,1052.000000) scale(0.100000,-0.100000)"
fill="#000000" stroke="none">
<path d="M3473 7854 c-526 -64 -1040 -279 -1453 -610 -111 -89 -328 -306 -414
-414 -484 -607 -684 -1365 -560 -2120 72 -436 272 -879 560 -1240 86 -108 303
-325 414 -414 418 -335 928 -547 1466 -611 169 -20 499 -20 669 0 860 102
1605 568 2069 1295 73 115 210 401 256 535 198 579 198 1171 0 1750 -46 134
-183 420 -256 535 -464 727 -1211 1194 -2069 1295 -161 19 -525 18 -682 -1z
m-820 -1478 l147 -128 -66 -71 c-182 -197 -334 -509 -379 -781 -21 -126 -21
-360 0 -478 52 -297 214 -504 440 -563 76 -19 214 -19 290 0 124 33 233 114
316 237 61 90 122 217 308 648 260 603 306 685 471 851 137 137 266 209 440
245 113 22 323 15 428 -15 230 -67 423 -224 560 -456 245 -415 240 -1051 -11
-1515 -76 -141 -244 -366 -267 -358 -5 2 -74 56 -154 122 l-146 118 38 47
c218 261 323 572 309 916 -7 166 -29 263 -87 382 -67 136 -166 227 -296 274
-82 30 -235 30 -317 1 -169 -61 -287 -209 -420 -527 -137 -328 -353 -817 -389
-885 -132 -243 -280 -399 -463 -490 -276 -136 -654 -115 -925 52 -263 162
-447 450 -521 815 -31 152 -38 472 -15 633 56 379 209 716 451 993 68 79 79
87 93 75 10 -8 83 -72 165 -142z"/>
</g>
</svg>
